# xmcd
#
# Track frame offsets:
#	150
#	19227
#	29345
#
# Disc length: 583 seconds
#
# Revision: 0
# Processed by: cddbd v1.5.2PL0 Copyright (c) Steve Scherf et al.
# Submitted via: audiograbber 1.82.02
#
DISCID=1c024503
DTITLE=Beatlesons - Living Next Door To Alice (Maxi CD)
DYEAR=1900
DGENRE=Country
TTITLE0=Living Next Door To Alice
TTITLE1=His Latest Flame
TTITLE2=Jolly Roger
EXTD=
EXTT0=
EXTT1=
EXTT2=
PLAYORDER=
